<?xml version="1.0" encoding="UTF-8"?>
<svg version="1.1" xmlns="http://www.w3.org/2000/svg" width="1024" height="1024">
<path d="M0 0 C337.92 0 675.84 0 1024 0 C1024 337.92 1024 675.84 1024 1024 C686.08 1024 348.16 1024 0 1024 C0 686.08 0 348.16 0 0 Z " fill="#F8F7F5" transform="translate(0,0)"/>
<path d="M0 0 C0.66408875 -0.00686325 1.32817749 -0.0137265 2.01239014 -0.02079773 C4.1967131 -0.0390242 6.38031494 -0.03523445 8.56469727 -0.02954102 C10.09017672 -0.03410496 11.61565412 -0.03941117 13.14112854 -0.04542542 C16.33456792 -0.05434841 19.52775712 -0.05194294 22.72119141 -0.04199219 C26.80459637 -0.03050539 30.88713618 -0.05071274 34.97042751 -0.07990932 C38.1198318 -0.0982954 41.26902969 -0.09797411 44.4184742 -0.0922718 C45.92350541 -0.09211887 47.42855086 -0.09814006 48.93353081 -0.11056328 C51.04216947 -0.12551769 53.14922195 -0.11476646 55.2578125 -0.09765625 C57.05387184 -0.097407 57.05387184 -0.097407 58.88621521 -0.09715271 C64.10946849 0.69438513 67.17581614 3.22556209 70.56860352 7.15405273 C72.6402345 11.2973147 72.31632957 13.81598643 72.19360352 18.40405273 C72.76054932 18.35692139 73.32749512 18.30979004 73.91162109 18.26123047 C89.29012696 17.16110795 100.05355883 19.35544825 113.19360352 27.40405273 C113.90242676 27.83717773 114.61125 28.27030273 115.34155273 28.71655273 C125.38205457 34.99741588 134.45099592 42.44040174 143.19360352 50.40405273 C143.9399707 51.07823242 144.68633789 51.75241211 145.45532227 52.44702148 C171.47525941 77.20026798 191.38185142 117.78478648 192.37060547 153.92041016 C192.39729263 155.61669366 192.41737369 157.31309013 192.43188477 159.00952148 C192.43995651 159.92880936 192.44802826 160.84809723 192.4563446 161.79524231 C192.47012958 163.74091747 192.48087652 165.68661624 192.48876953 167.63232422 C192.50018962 169.5819429 192.52047922 171.53153287 192.55029297 173.48095703 C193.135512 211.86674821 180.00872078 250.56475365 154.19360352 279.40405273 C152.91549805 280.86198242 152.91549805 280.86198242 151.61157227 282.34936523 C123.04273051 314.55518069 84.97037958 333.82699527 42.19360352 338.40405273 C37.50145422 338.67871193 32.83056233 338.73862193 28.13110352 338.71655273 C26.87322021 338.71163818 25.61533691 338.70672363 24.31933594 338.70166016 C-19.24790456 338.16105488 -57.65163459 320.41341897 -88.80639648 290.40405273 C-89.55920898 289.7144043 -90.31202148 289.02475586 -91.08764648 288.31420898 C-102.19511203 277.83053226 -111.38016991 264.69811145 -118.80639648 251.40405273 C-119.29052002 250.55037109 -119.29052002 250.55037109 -119.78442383 249.67944336 C-138.9969034 215.35339608 -146.17216711 168.08148265 -135.49536133 129.7565918 C-135.26800293 128.98025391 -135.04064453 128.20391602 -134.80639648 127.40405273 C-134.43635498 126.11192871 -134.43635498 126.11192871 -134.05883789 124.79370117 C-122.36307614 84.94626243 -97.03645507 48.81156866 -60.55639648 27.96655273 C-58.30995345 26.77233753 -56.06012969 25.58445219 -53.80639648 24.40405273 C-52.36393555 23.50493164 -52.36393555 23.50493164 -50.89233398 22.58764648 C-40.2580867 16.54099664 -28.68099845 17.83783501 -16.80639648 18.40405273 C-16.87407227 16.80303711 -16.87407227 16.80303711 -16.94311523 15.16967773 C-16.81150092 11.5446434 -16.55979826 10.09227943 -14.61889648 7.15405273 C-14.00981445 6.18725586 -14.00981445 6.18725586 -13.38842773 5.20092773 C-9.50686072 0.79223434 -5.71564401 0.02580823 0 0 Z " fill="#1D8949" transform="translate(261.806396484375,336.595947265625)"/>
<path d="M0 0 C1.19846054 -0.0137265 2.39692108 -0.027453 3.63169861 -0.04159546 C6.88228503 -0.07167625 10.13141168 -0.07519102 13.38207579 -0.06371069 C16.11281088 -0.05747387 18.84334439 -0.06977002 21.57405055 -0.08178818 C28.02529065 -0.10975982 34.47600042 -0.10685755 40.92724609 -0.08398438 C47.54432783 -0.06103913 54.15978663 -0.08916613 60.7766546 -0.14277732 C66.49353092 -0.18733241 72.2099023 -0.20031264 77.92693961 -0.1886245 C81.3257977 -0.18193852 84.72361675 -0.18634912 88.1223259 -0.22112656 C114.85900195 -0.43249631 114.85900195 -0.43249631 126.38525391 8.80810547 C127.5434213 9.64495898 128.70669692 10.47478449 129.87475586 11.29777527 C157.1651127 30.65467975 175.64731335 60.19703392 182.26025391 92.87060547 C184.91150475 108.82573776 184.20366491 123.22546679 175.27197266 137.24169922 C163.42022046 153.36302674 147.86083244 165.1147617 130.19775391 174.18310547 C129.5814209 174.50480713 128.96508789 174.82650879 128.33007812 175.15795898 C124.5181031 177.04795918 120.7455369 178.32370694 116.63012695 179.41601562 C115.64602341 179.6788736 114.66191986 179.94173157 113.647995 180.21255493 C112.90129044 180.40908661 112.15458588 180.60561829 111.38525391 180.80810547 C111.38286555 180.15064835 111.3804772 179.49319122 111.37801647 178.81581116 C111.31881082 162.79844994 111.24322529 146.78126169 111.14953899 130.7640686 C111.10462507 123.018182 111.06520033 115.27234091 111.03881836 107.52636719 C111.01580252 100.77284655 110.98236465 94.01947051 110.93655235 87.26606464 C110.91266824 83.6920948 110.89390806 80.11826773 110.88764 76.54421997 C110.880437 72.54864198 110.84996057 68.55355918 110.81762695 64.55810547 C110.81906204 63.38062241 110.82049713 62.20313934 110.82197571 60.98997498 C110.74082672 53.89374055 110.31913534 47.67687659 105.87744141 41.81982422 C97.25908034 34.76276045 88.2622365 34.25680034 77.38525391 33.80810547 C77.04494141 32.19935547 77.04494141 32.19935547 76.69775391 30.55810547 C75.17681733 26.21257238 74.28611595 25.15360089 70.38525391 22.80810547 C67.35661378 22.25709213 64.3937831 22.29421535 61.32275391 22.34716797 C60.45384521 22.34808441 59.58493652 22.34900085 58.68969727 22.34994507 C56.85736612 22.35597193 55.0250444 22.37169047 53.19287109 22.39648438 C50.3946485 22.43298293 47.59775221 22.43750354 44.79931641 22.43701172 C43.01545085 22.44684421 41.23159422 22.45850178 39.44775391 22.47216797 C38.61429443 22.47439362 37.78083496 22.47661926 36.92211914 22.47891235 C32.69326069 22.54771004 29.17082402 22.69000543 25.38525391 24.80810547 C24.35707005 26.96635481 24.35707005 26.96635481 24.07275391 29.43310547 C23.93224609 30.25037109 23.79173828 31.06763672 23.64697266 31.90966797 C23.51742187 32.84939453 23.51742187 32.84939453 23.38525391 33.80810547 C22.34626953 33.83388672 21.30728516 33.85966797 20.23681641 33.88623047 C6.95236686 34.25762813 6.95236686 34.25762813 -4.48193359 40.45263672 C-8.88371778 45.28617486 -10.8555771 49.82700298 -10.89321899 56.42060852 C-10.90438248 57.53815018 -10.91554596 58.65569183 -10.92704773 59.80709839 C-10.92920792 61.02341949 -10.9313681 62.2397406 -10.93359375 63.49291992 C-10.94363937 64.78112137 -10.953685 66.06932281 -10.96403503 67.39656067 C-10.99129698 70.92093299 -11.00647308 74.44526542 -11.01946306 77.96971536 C-11.03511031 81.65597872 -11.06189544 85.34216082 -11.0874939 89.02836609 C-11.1342535 96.00511453 -11.17101122 102.98187831 -11.20416677 109.95870322 C-11.24240809 117.90309551 -11.29181298 125.84740615 -11.34215093 133.79172957 C-11.44542886 150.13046286 -11.53470268 166.46924148 -11.61474609 182.80810547 C-13.02845353 182.34695716 -14.44128672 181.88312834 -15.85375977 181.41821289 C-16.64062668 181.16021408 -17.42749359 180.90221527 -18.23820496 180.63639832 C-29.49333755 176.71366133 -40.04913777 170.86447451 -49.61474609 163.80810547 C-50.46294922 163.18291016 -51.31115234 162.55771484 -52.18505859 161.91357422 C-66.12943477 151.18208723 -79.83714504 137.55412443 -83.29833984 119.62451172 C-86.57372296 90.46955828 -76.76068259 61.3733507 -58.83642578 38.41894531 C-56.1796366 35.13900693 -53.43044746 31.95223235 -50.61474609 28.80810547 C-50.14955566 28.28635742 -49.68436523 27.76460938 -49.20507812 27.22705078 C-44.0241499 21.5142114 -38.33504726 16.60649282 -32.17724609 11.99560547 C-31.60506348 11.5633667 -31.03288086 11.13112793 -30.44335938 10.68579102 C-20.75664556 3.69251508 -12.01717095 -0.09802819 0 0 Z " fill="#F8F7F5" transform="translate(239.61474609375,387.19189453125)"/>
<path d="M0 0 C0.70833984 -0.05414063 1.41667969 -0.10828125 2.14648438 -0.1640625 C5.30314035 -0.24567503 7.44565489 -0.18784904 9.97485352 1.8190918 C11.56646503 3.63671575 12.94633335 5.50782383 14.3125 7.5 C14.76729736 8.1202002 15.22209473 8.74040039 15.69067383 9.37939453 C17.11575539 11.33733268 18.49812328 13.32040801 19.875 15.3125 C20.91702338 16.80534782 21.96002793 18.29751116 23.00390625 19.7890625 C23.54160645 20.55766602 24.07930664 21.32626953 24.63330078 22.11816406 C28.02245663 26.92546334 31.48718362 31.67860986 34.94750977 36.43481445 C35.45983154 37.14081787 35.97215332 37.84682129 36.5 38.57421875 C36.94730469 39.18869873 37.39460937 39.80317871 37.85546875 40.4362793 C39.72831541 43.0889557 41.51968705 45.79278526 43.3125 48.5 C43.32280746 47.91340103 43.33311493 47.32680206 43.34373474 46.72242737 C43.45157194 40.6396213 43.56618756 34.55697026 43.68481445 28.47436523 C43.72823665 26.20161164 43.76990616 23.92882387 43.80981445 21.65600586 C43.86734119 18.39686768 43.93108552 15.13790269 43.99609375 11.87890625 C44.01280624 10.85599991 44.02951874 9.83309357 44.04673767 8.77919006 C44.06668289 7.83829025 44.08662811 6.89739044 44.10717773 5.92797852 C44.12272202 5.09524918 44.1382663 4.26251984 44.15428162 3.40455627 C44.3125 1.5 44.3125 1.5 45.3125 0.5 C47.9898138 0.40018786 50.63554175 0.36120125 53.3125 0.375 C54.06273437 0.37113281 54.81296875 0.36726563 55.5859375 0.36328125 C61.18588947 0.37338947 61.18588947 0.37338947 62.3125 1.5 C62.40752416 3.99492388 62.43807566 6.46206014 62.42602539 8.95727539 C62.42617142 9.73770706 62.42631744 10.51813873 62.4264679 11.32221985 C62.42576858 13.9140598 62.41797536 16.50582878 62.41015625 19.09765625 C62.40829213 20.8898464 62.4068682 22.68203706 62.40586853 24.47422791 C62.40204284 29.20070797 62.39221212 33.92715752 62.38116455 38.65362549 C62.37095153 43.4728555 62.36637115 48.29209042 62.36132812 53.11132812 C62.35058989 62.57423219 62.33351286 72.03711356 62.3125 81.5 C59.56347231 81.59028227 56.81741922 81.65644986 54.06762695 81.70874023 C53.2910096 81.73672447 52.51439224 81.76470871 51.71424103 81.79354095 C45.92085539 81.876258 45.92085539 81.876258 42.81332397 79.95429993 C41.03428707 77.93778714 39.78447108 75.92444757 38.5 73.5625 C37.45631982 71.90197237 36.41203441 70.24182499 35.3671875 68.58203125 C34.8628418 67.73334473 34.35849609 66.8846582 33.83886719 66.01025391 C31.46841477 62.11182272 28.79403342 58.44721445 26.125 54.75 C25.23398742 53.48556397 24.34468099 52.21992405 23.45703125 50.953125 C19.10084824 44.78412049 14.70202019 38.64532827 10.3125 32.5 C9.9825 48.67 9.6525 64.84 9.3125 81.5 C3.7025 81.5 -1.9075 81.5 -7.6875 81.5 C-9.39313104 79.79436896 -8.81337612 77.6483787 -8.82302856 75.37324524 C-8.82100433 74.63970322 -8.8189801 73.90616119 -8.81689453 73.15039062 C-8.81864685 72.38131882 -8.82039917 71.61224701 -8.82220459 70.81987 C-8.8266234 68.26530737 -8.82368502 65.71081339 -8.8203125 63.15625 C-8.82098553 61.38887519 -8.82195555 59.62150047 -8.82321167 57.85412598 C-8.82468868 54.14509197 -8.82253398 50.436082 -8.81787109 46.72705078 C-8.8121738 41.96177507 -8.81545279 37.19655568 -8.82144356 32.43128204 C-8.82504908 28.78028943 -8.82391062 25.12931027 -8.82131577 21.47831726 C-8.82064647 19.72075901 -8.821475 17.96319955 -8.82379532 16.2056427 C-8.82632171 13.75359846 -8.82248146 11.30164669 -8.81689453 8.84960938 C-8.81891876 8.11606735 -8.82094299 7.38252533 -8.82302856 6.62675476 C-8.7925833 -0.54935613 -6.52191506 0.20796186 0 0 Z " fill="#113125" transform="translate(700.6875,473.5)"/>
<path d="M0 0 C7.5476479 4.73303338 12.941027 10.60499323 15.71484375 19.2109375 C17.65090106 29.66564697 15.74501456 39.0210986 10.48046875 48.1328125 C1.28355935 56.6036501 -8.52874337 58.92367193 -20.6875 58.62890625 C-28.98881668 58.18422581 -35.18694304 54.89722347 -41.203125 49.2578125 C-48.42184338 40.9887956 -48.63170716 30.93388356 -48.11230469 20.48144531 C-47.43161518 13.72644136 -43.92703785 9.0078238 -39.14453125 4.4453125 C-37.75831681 3.36345141 -36.3415233 2.31942606 -34.89453125 1.3203125 C-34.27320313 0.88589844 -33.651875 0.45148438 -33.01171875 0.00390625 C-23.94959865 -5.09575741 -9.17551206 -4.51668924 0 0 Z " fill="#0F2D22" transform="translate(601.89453125,497.6796875)"/>
<path d="M0 0 C0.62003906 0.4125 1.24007812 0.825 1.87890625 1.25 C47.75352835 31.16532853 106.83642187 40.01101106 160.2890625 29.484375 C179.96200888 25.27310887 198.94392165 18.81204196 216 8 C216.33 8.99 216.66 9.98 217 11 C188.95797092 36.77480119 157.40370355 51.04270783 119 53 C118.22446777 53.04382813 117.44893555 53.08765625 116.64990234 53.1328125 C88.72361702 54.5031475 61.30805908 47.66977456 37 34 C35.5459375 33.18789063 35.5459375 33.18789063 34.0625 32.359375 C23.16915454 25.83603441 13.74087995 17.13768665 5.125 7.875 C4.60687744 7.3186084 4.08875488 6.7622168 3.55493164 6.18896484 C0 2.25992623 0 2.25992623 0 0 Z " fill="#F6F6F4" transform="translate(182,581)"/>
<path d="M0 0 C2.6058889 -0.13494246 5.20482111 -0.23402299 7.8125 -0.3125 C8.55048828 -0.35439453 9.28847656 -0.39628906 10.04882812 -0.43945312 C12.20703125 -0.48828125 12.20703125 -0.48828125 16 0 C18.35878591 3.2133567 19.70608507 6.59007775 20.99291992 10.34106445 C21.35306686 11.3817659 21.71321381 12.42246735 22.08427429 13.4947052 C22.46251846 14.6063353 22.84076263 15.71796539 23.23046875 16.86328125 C23.62575272 18.01040085 24.02103668 19.15752045 24.42829895 20.33940125 C25.68670767 23.99529032 26.93719684 27.6538319 28.1875 31.3125 C29.04049457 33.79510097 29.89400419 36.27752503 30.74804688 38.75976562 C32.83800705 44.83780542 34.92147553 50.91804066 37 57 C39.52167774 50.80969695 41.90939469 44.59818834 44.09375 38.28125 C44.3671521 37.49786255 44.6405542 36.7144751 44.92224121 35.90734863 C45.78364485 33.43897528 46.64220067 30.96962802 47.5 28.5 C54.29803587 8.92826644 54.29803587 8.92826644 58 0 C63.61 0 69.22 0 75 0 C74.29073709 4.96484034 73.66052413 8.4725564 72.0234375 13.0234375 C71.60698975 14.19044189 71.19054199 15.35744629 70.76147461 16.55981445 C70.29963394 17.83165832 69.83746614 19.10338343 69.375 20.375 C68.89486771 21.70843497 68.41514195 23.04201637 67.93579102 24.37573242 C66.88352869 27.29791707 65.82602606 30.21814368 64.76513672 33.13720703 C63.5191952 36.56594851 62.27937591 39.9968322 61.04345703 43.42919922 C59.3501239 48.13171369 57.65038272 52.83186394 55.94586182 57.53033447 C55.27395141 59.38419878 54.60366121 61.23865112 53.93499756 63.09368896 C52.9921453 65.70643538 52.04198954 68.3164097 51.08984375 70.92578125 C50.80693985 71.71395737 50.52403595 72.50213348 50.2325592 73.31419373 C48.22855955 78.77144045 48.22855955 78.77144045 46 81 C44.12060547 81.22705078 44.12060547 81.22705078 41.8671875 81.1953125 C41.06152344 81.18886719 40.25585938 81.18242188 39.42578125 81.17578125 C38.58402344 81.15902344 37.74226562 81.14226562 36.875 81.125 C36.02550781 81.11597656 35.17601562 81.10695313 34.30078125 81.09765625 C32.20040116 81.07405647 30.10016556 81.03818483 28 81 C24.60345014 74.58818482 22.0789459 68.0582524 19.6640625 61.22265625 C19.26222748 60.0979039 18.86039246 58.97315155 18.44638062 57.8143158 C17.16784749 54.2320458 15.89634218 50.6473275 14.625 47.0625 C13.77910336 44.68928999 12.9327532 42.31624159 12.0859375 39.94335938 C10.45616282 35.37480113 8.83347546 30.80381938 7.21582031 26.23095703 C5.84243616 22.35325783 4.44936541 18.48426922 3.02636719 14.62451172 C2.73684174 13.831129 2.44731628 13.03774628 2.14901733 12.22032166 C1.62525096 10.78752779 1.09454501 9.35724215 0.55532837 7.93019104 C-1.11228438 3.33685313 -1.11228438 3.33685313 0 0 Z " fill="#0F2E22" transform="translate(487,474)"/>
<path d="M0 0 C5.65839786 4.47056625 10.02531925 9.6011999 12.046875 16.6171875 C12.89513371 26.34479944 12.89513371 26.34479944 10.046875 30.6171875 C8.21188354 30.97795105 8.21188354 30.97795105 5.96435547 30.95776367 C5.12363495 30.95753708 4.28291443 30.95731049 3.41671753 30.95707703 C2.50834137 30.94159317 1.59996521 30.92610931 0.6640625 30.91015625 C-0.26534149 30.90591141 -1.19474548 30.90166656 -2.15231323 30.89729309 C-5.12787556 30.88046762 -8.10276656 30.84280853 -11.078125 30.8046875 C-13.09243815 30.78964566 -15.10676189 30.77595638 -17.12109375 30.76367188 C-22.06536379 30.73055144 -27.00913049 30.67874279 -31.953125 30.6171875 C-29.81998321 35.12391192 -28.20853714 37.88156541 -23.953125 40.6171875 C-17.98846225 42.55167272 -12.06566517 42.16817967 -6.265625 40.0546875 C-3.74796652 39.16508605 -1.88593584 38.61260642 0.796875 38.4296875 C4.43619541 40.35043994 6.71792356 43.74526951 8.046875 47.6171875 C7.27903853 50.18449347 6.51906944 51.2917562 4.3125 52.8125 C3.64734375 53.11929688 2.9821875 53.42609375 2.296875 53.7421875 C1.64203125 54.05414062 0.9871875 54.36609375 0.3125 54.6875 C-5.11780959 56.91579945 -9.82359836 57.97891799 -15.703125 57.9296875 C-16.75983398 57.92122803 -16.75983398 57.92122803 -17.83789062 57.91259766 C-27.6234955 57.68612055 -34.70790763 55.2236154 -41.953125 48.6171875 C-48.13384905 42.10237025 -50.3836856 34.00508942 -50.22265625 25.20703125 C-49.21978625 15.57075868 -45.30607357 7.90449135 -37.953125 1.6171875 C-27.56161366 -5.15988511 -10.76847907 -6.5724855 0 0 Z " fill="#0F2C21" transform="translate(816.953125,498.3828125)"/>
<path d="M0 0 C1.6484375 1.09765625 1.6484375 1.09765625 3.8359375 2.91015625 C3.40910118 4.18461079 2.96896548 5.45461507 2.5234375 6.72265625 C2.27980469 7.43035156 2.03617188 8.13804687 1.78515625 8.8671875 C0.76869492 11.05487998 -0.37226844 12.31912343 -2.1640625 13.91015625 C-7.875 12.05078125 -7.875 12.05078125 -10.4765625 10.78515625 C-15.310097 9.21144734 -20.35930902 9.30857176 -25.1640625 10.91015625 C-25.41437227 13.32635448 -25.41437227 13.32635448 -25.1640625 15.91015625 C-21.57493058 18.30291086 -18.12111621 18.8710599 -13.9765625 19.72265625 C-6.32650418 21.42249052 -0.08921176 23.07089785 4.8359375 29.53515625 C6.61162921 35.52811579 6.69204186 41.34184317 4.7109375 47.28515625 C0.92399185 52.58688016 -3.9335984 56.04323164 -10.1640625 57.91015625 C-13.46654484 58.34615418 -16.7115352 58.37526017 -20.0390625 58.34765625 C-21.30943359 58.37762695 -21.30943359 58.37762695 -22.60546875 58.40820312 C-30.39143024 58.40224144 -37.22131591 56.07776198 -43.1640625 50.91015625 C-42.76197868 45.28098277 -40.87475948 42.90629146 -37.1640625 38.91015625 C-36.5040625 39.17828125 -35.8440625 39.44640625 -35.1640625 39.72265625 C-34.1740625 40.11453125 -33.1840625 40.50640625 -32.1640625 40.91015625 C-31.55949219 41.17441406 -30.95492187 41.43867187 -30.33203125 41.7109375 C-24.74708497 44.03524453 -19.5191794 45.25220301 -13.6640625 42.91015625 C-13.1690625 42.58015625 -12.6740625 42.25015625 -12.1640625 41.91015625 C-12.1640625 40.26015625 -12.1640625 38.61015625 -12.1640625 36.91015625 C-17.19426806 35.14958431 -22.07387207 33.70112224 -27.2890625 32.59765625 C-33.82092448 31.00634804 -37.9738 28.33839321 -41.6015625 22.66015625 C-42.84497229 16.58126392 -43.25055028 11.07696041 -40.1015625 5.53515625 C-31.19658279 -6.94187747 -12.51470038 -6.30252961 0 0 Z " fill="#0F2C21" transform="translate(874.1640625,498.08984375)"/>
<path d="M0 0 C1.27980536 2.55961072 0.82657157 3.40582292 0.11962891 6.14257812 C-0.0974472 6.99686401 -0.31452332 7.8511499 -0.53817749 8.73132324 C-0.78081329 9.65529907 -1.0234491 10.5792749 -1.2734375 11.53125 C-1.51663727 12.47810669 -1.75983704 13.42496338 -2.01040649 14.4005127 C-2.52674369 16.40539534 -3.04648473 18.40940392 -3.56933594 20.41259766 C-4.37120884 23.48547181 -5.16308494 26.56078346 -5.953125 29.63671875 C-6.45514569 31.58087993 -6.95773098 33.52489541 -7.4609375 35.46875 C-7.69952484 36.39272583 -7.93811218 37.31670166 -8.18392944 38.26867676 C-8.40730988 39.12296265 -8.63069031 39.97724854 -8.86083984 40.85742188 C-9.05704926 41.61083862 -9.25325867 42.36425537 -9.45541382 43.14050293 C-10 45 -10 45 -11 47 C-3.41 47 4.18 47 12 47 C10.56530968 49.86938065 9.30130223 52.11774156 7.453125 54.66015625 C6.94515381 55.36156738 6.43718262 56.06297852 5.91381836 56.78564453 C5.3647583 57.53700684 4.81569824 58.28836914 4.25 59.0625 C3.67580322 59.85253418 3.10160645 60.64256836 2.51000977 61.45654297 C0.67753287 63.97412056 -1.16025336 66.48773075 -3 69 C-3.58990723 69.8058252 -4.17981445 70.61165039 -4.78759766 71.44189453 C-11.46936365 80.55877658 -18.19650699 89.64071719 -25.00610352 98.66259766 C-28.0708375 102.72965172 -31.05462082 106.84557729 -34 111 C-35.07985477 107.76043568 -34.94693418 106.94021391 -34.11962891 103.75976562 C-33.9025528 102.90878296 -33.68547668 102.05780029 -33.46182251 101.18103027 C-33.0978688 99.80751404 -33.0978688 99.80751404 -32.7265625 98.40625 C-32.48336273 97.46317993 -32.24016296 96.52010986 -31.98959351 95.54846191 C-31.20912987 92.53024049 -30.41708167 89.51519088 -29.625 86.5 C-29.09822324 84.46763831 -28.5721726 82.43508826 -28.046875 80.40234375 C-27.08192814 76.68051036 -26.11536021 72.95913362 -25.13916016 69.24023438 C-24.94295074 68.49205444 -24.74674133 67.74387451 -24.54458618 66.97302246 C-24.08274965 65.29979995 -23.54890496 63.64671488 -23 62 C-30.26 62 -37.52 62 -45 62 C-41.02346454 55.51651827 -36.86314074 49.38226737 -32.17944336 43.390625 C-28.43328948 38.59067048 -24.79592041 33.71673456 -21.1875 28.8125 C-20.60194336 28.01666504 -20.01638672 27.22083008 -19.41308594 26.40087891 C-14.56984978 19.80259786 -9.77211871 13.17170396 -4.9987793 6.52270508 C-4.48742432 5.81138428 -3.97606934 5.10006348 -3.44921875 4.3671875 C-2.99893311 3.73925293 -2.54864746 3.11131836 -2.0847168 2.46435547 C-1 1 -1 1 0 0 Z " fill="#F5F6F3" transform="translate(308,454)"/>
<path d="M0 0 C0 5.28 0 10.56 0 16 C3.4340625 15.9690625 3.4340625 15.9690625 6.9375 15.9375 C9.29166332 15.91629132 11.64686445 15.92728259 14 16 C15 17 15 17 15.1328125 19.43359375 C15.13023437 20.42488281 15.12765625 21.41617187 15.125 22.4375 C15.12886719 23.92056641 15.12886719 23.92056641 15.1328125 25.43359375 C15 28 15 28 14 30 C9.38 30 4.76 30 0 30 C0.08679645 34.41763979 0.19367254 38.83320557 0.3125 43.25 C0.33505859 44.50425781 0.35761719 45.75851562 0.38085938 47.05078125 C0.4340332 48.85869141 0.4340332 48.85869141 0.48828125 50.703125 C0.51446533 51.81333008 0.54064941 52.92353516 0.56762695 54.06738281 C1.04172988 57.28303748 1.72258872 58.71162646 4 61 C6.50880616 61.48261667 6.50880616 61.48261667 9.1875 61.25 C10.53908203 61.19585938 10.53908203 61.19585938 11.91796875 61.140625 C12.60503906 61.09421875 13.29210937 61.0478125 14 61 C15.60385043 64.65170466 17 67.84712488 17 71.875 C16 74 16 74 13.90234375 75.11328125 C10.35525965 76.19697989 7.26978466 76.30129974 3.5625 76.3125 C2.28503906 76.32925781 1.00757813 76.34601563 -0.30859375 76.36328125 C-5.75699089 75.82708979 -8.90860907 74.09139093 -12.75 70.25 C-16.58566949 64.70958851 -17.25225552 59.3877677 -17.1953125 52.75390625 C-17.1924826 52.09792953 -17.18965271 51.44195282 -17.18673706 50.76609802 C-17.17565984 48.69803591 -17.15058063 46.63042827 -17.125 44.5625 C-17.11495402 43.14909485 -17.10583102 41.73568283 -17.09765625 40.32226562 C-17.07576184 36.88136606 -17.04132051 33.44072748 -17 30 C-19.64 30 -22.28 30 -25 30 C-27.25068913 25.49862174 -27.24661958 21.93239162 -27 17 C-26 16 -26 16 -23.71484375 15.90234375 C-21.14322917 15.93489583 -18.57161458 15.96744792 -16 16 C-16 11.38 -16 6.76 -16 2 C-10.43695818 -0.78152091 -6.19552319 -0.13468529 0 0 Z " fill="#0F2C21" transform="translate(908,480)"/>
<path d="M0 0 C0 5.28 0 10.56 0 16 C4.95 16 9.9 16 15 16 C15.09765625 26.05859375 15.09765625 26.05859375 15 29 C14 30 14 30 10.83984375 30.09765625 C9.55207031 30.08605469 8.26429688 30.07445312 6.9375 30.0625 C5.64714844 30.05347656 4.35679687 30.04445313 3.02734375 30.03515625 C2.02832031 30.02355469 1.02929688 30.01195312 0 30 C0.08100939 34.22994309 0.19384505 38.45845865 0.3125 42.6875 C0.33505859 43.88568359 0.35761719 45.08386719 0.38085938 46.31835938 C0.4340332 48.05375977 0.4340332 48.05375977 0.48828125 49.82421875 C0.51446533 50.88729248 0.54064941 51.95036621 0.56762695 53.0456543 C1.05625999 56.3844168 1.95959532 58.3265342 4 61 C6.73377614 61.60393692 6.73377614 61.60393692 9.6875 61.3125 C10.68136719 61.26738281 11.67523437 61.22226562 12.69921875 61.17578125 C13.83810547 61.08876953 13.83810547 61.08876953 15 61 C17.66097061 70.23513329 17.66097061 70.23513329 16 74 C11.88680883 76.18705128 8.16706823 76.29858892 3.5625 76.3125 C2.28503906 76.32925781 1.00757813 76.34601563 -0.30859375 76.36328125 C-4.91955895 75.90950372 -8.20342471 74.6386815 -11.64453125 71.5 C-15.73401358 66.24795581 -16.1421285 62.51400911 -16.09765625 56.05078125 C-16.0962413 55.27816452 -16.09482635 54.50554779 -16.09336853 53.70951843 C-16.08777466 51.24380611 -16.07522333 48.77818485 -16.0625 46.3125 C-16.05748421 44.63997527 -16.05292144 42.96744912 -16.04882812 41.29492188 C-16.03780724 37.19657954 -16.02054684 33.09830521 -16 29 C-18.97 29 -21.94 29 -25 29 C-26.45781334 24.62655999 -26.0598032 20.60484643 -26 16 C-22.7 16 -19.4 16 -16 16 C-16 11.38 -16 6.76 -16 2 C-10.06070169 -0.37571932 -6.33143085 -0.1525646 0 0 Z " fill="#0E2C21" transform="translate(669,480)"/>
<path d="M0 0 C1.26714844 -0.01417969 2.53429687 -0.02835937 3.83984375 -0.04296875 C7.0625 0.1875 7.0625 0.1875 9.0625 2.1875 C9.25554165 4.7117433 9.32485759 7.12577523 9.30541992 9.65063477 C9.30731827 10.4198526 9.30921661 11.18907043 9.31117249 11.9815979 C9.31488513 14.5308035 9.3041701 17.07972586 9.29296875 19.62890625 C9.29177722 21.39485134 9.29132373 23.16079708 9.2915802 24.92674255 C9.29001454 28.62983154 9.28171797 32.33282397 9.26831055 36.03588867 C9.25130817 40.79329558 9.24749651 45.5505964 9.24825573 50.30803013 C9.24798442 53.95473756 9.24250966 57.60142159 9.23525429 61.24812126 C9.23206228 63.00288656 9.23009898 64.75765452 9.22936058 66.51242256 C9.22720333 68.95958138 9.21847292 71.40662542 9.20776367 73.85375977 C9.20844345 74.95171623 9.20844345 74.95171623 9.20913696 76.07185364 C9.17697497 81.07302503 9.17697497 81.07302503 8.0625 82.1875 C5.55113896 82.28725032 3.07346585 82.32632183 0.5625 82.3125 C-0.14003906 82.31636719 -0.84257813 82.32023438 -1.56640625 82.32421875 C-6.81088622 82.31411378 -6.81088622 82.31411378 -7.9375 81.1875 C-8.03783866 78.69796303 -8.07367943 76.23615047 -8.06689453 73.74609375 C-8.06864685 72.96726837 -8.07039917 72.18844299 -8.07220459 71.38601685 C-8.07662349 68.79898889 -8.07368499 66.21202871 -8.0703125 63.625 C-8.07098553 61.83520494 -8.07195554 60.04540998 -8.07321167 58.25561523 C-8.07468869 54.49950289 -8.07253394 50.74341428 -8.06787109 46.98730469 C-8.0621738 42.16149507 -8.06545278 37.33574105 -8.07144356 32.50993347 C-8.07504905 28.81261777 -8.07391064 25.11531536 -8.07131577 21.41799927 C-8.07064646 19.63811232 -8.07147503 17.85822418 -8.07379532 16.07833862 C-8.07632165 13.59516178 -8.07248154 11.11207626 -8.06689453 8.62890625 C-8.06891876 7.88601349 -8.07094299 7.14312073 -8.07302856 6.37771606 C-8.04379152 -0.60085414 -6.76129699 0.0343213 0 0 Z " fill="#0C2A1F" transform="translate(629.9375,472.8125)"/>
<path d="M0 0 C4.61109698 2.28575837 7.33441107 5.47806799 9.0078125 10.33984375 C9.70006561 15.79133698 9.08908518 19.75137548 6.40234375 24.57421875 C3.05658295 28.81030806 -1.37571317 30.11297016 -6.5546875 30.83984375 C-12.18430236 30.02099068 -15.53668908 27.86998311 -19.4296875 23.77734375 C-21.64674648 18.899814 -21.76227439 14.61258152 -20.9921875 9.33984375 C-16.86610388 0.61158995 -9.15877154 -3.03496547 0 0 Z " fill="#F6F5F3" transform="translate(591.9921875,510.66015625)"/>
<path d="M0 0 C5.28 0 10.56 0 16 0 C17.71987206 1.71987206 17.11974788 3.90877029 17.12442017 6.20132446 C17.12082489 6.94578827 17.11722961 7.69025208 17.11352539 8.45727539 C17.11367142 9.23770706 17.11381744 10.01813873 17.1139679 10.82221985 C17.11326858 13.4140598 17.10547536 16.00582878 17.09765625 18.59765625 C17.09579213 20.3898464 17.0943682 22.18203706 17.09336853 23.97422791 C17.08954284 28.70070797 17.07971212 33.42715752 17.06866455 38.15362549 C17.05845153 42.9728555 17.05387115 47.79209042 17.04882812 52.61132812 C17.03808989 62.07423435 17.02049268 71.53710987 17 81 C11.39 81 5.78 81 0 81 C0.495 80.01 0.495 80.01 1 79 C7.93 79.495 7.93 79.495 15 80 C15 54.26 15 28.52 15 2 C10.38 2 5.76 2 1 2 C1 17.84 1 33.68 1 50 C0.67 50 0.34 50 0 50 C0 33.5 0 17 0 0 Z " fill="#091B11" transform="translate(746,474)"/>
<path d="M0 0 C5.12567916 2.4713096 5.82060031 3.55150077 8 9 C-0.58 9 -9.16 9 -18 9 C-14.54191263 0.35478157 -8.76334157 -1.40839418 0 0 Z " fill="#F6F7F5" transform="translate(804,508)"/>
<path d="M0 0 C0.33 0 0.66 0 1 0 C1.0825 0.78375 1.165 1.5675 1.25 2.375 C1.4975 3.24125 1.745 4.1075 2 5 C3.32 5.66 4.64 6.32 6 7 C3.03 10.96 0.06 14.92 -3 19 C-4.35949488 14.92151537 -3.14486103 11.82319055 -2.0625 7.8125 C-1.86720703 7.06291016 -1.67191406 6.31332031 -1.47070312 5.54101562 C-0.98785625 3.69206541 -0.49489367 1.84576224 0 0 Z " fill="#E8F2ED" transform="translate(277,546)"/>
<path d="M0 0 C0.33 0.99 0.66 1.98 1 3 C-5.46439121 8.9417383 -12.07935918 14.59601026 -19 20 C-19 19.01 -19 18.02 -19 17 C-16.6640625 14.84375 -16.6640625 14.84375 -13.625 12.5 C-9.34801576 9.19007337 -9.34801576 9.19007337 -6 5 C-5.34 5 -4.68 5 -4 5 C-3.71125 4.360625 -3.4225 3.72125 -3.125 3.0625 C-2 1 -2 1 0 0 Z " fill="#ECF3EE" transform="translate(398,589)"/>
<path d="M0 0 C0.33 0 0.66 0 1 0 C1 4.95 1 9.9 1 15 C5.29 15 9.58 15 14 15 C14.33 16.32 14.66 17.64 15 19 C14.67 18.34 14.34 17.68 14 17 C9.05 17 4.1 17 -1 17 C-0.67 11.39 -0.34 5.78 0 0 Z " fill="#E7E9E8" transform="translate(670,479)"/>
<path d="M0 0 C1.1127832 -0.01836914 1.1127832 -0.01836914 2.24804688 -0.03710938 C4.18763629 -0.04238478 6.1267371 0.06561098 8.0625 0.1875 C8.7225 0.8475 9.3825 1.5075 10.0625 2.1875 C9.6875 4.3125 9.6875 4.3125 9.0625 6.1875 C8.7325 5.1975 8.4025 4.2075 8.0625 3.1875 C3.1125 2.8575 -1.8375 2.5275 -6.9375 2.1875 C-6.6075 3.8375 -6.2775 5.4875 -5.9375 7.1875 C-6.5975 6.8575 -7.2575 6.5275 -7.9375 6.1875 C-8.625 3.6875 -8.625 3.6875 -8.9375 1.1875 C-6.89483571 -0.85516429 -2.80058566 0.00242056 0 0 Z " fill="#122018" transform="translate(494.9375,473.8125)"/>
<path d="M0 0 C0.33 0 0.66 0 1 0 C1.33 10.56 1.66 21.12 2 32 C0.515 32.495 0.515 32.495 -1 33 C-0.67 22.11 -0.34 11.22 0 0 Z " fill="#C5DFD0" transform="translate(122,496)"/>
<path d="M0 0 C1.74116058 2.61174087 2.47244488 4.16423672 3.2890625 7.08984375 C3.50820313 7.87423828 3.72734375 8.65863281 3.953125 9.46679688 C4.17484375 10.28212891 4.3965625 11.09746094 4.625 11.9375 C4.85445313 12.74896484 5.08390625 13.56042969 5.3203125 14.39648438 C6.3566832 18.15641258 7 21.04534024 7 25 C6.34 25 5.68 25 5 25 C4.73445313 23.81921875 4.46890625 22.6384375 4.1953125 21.421875 C3.83880998 19.86452189 3.48202428 18.30723358 3.125 16.75 C2.95097656 15.97269531 2.77695312 15.19539063 2.59765625 14.39453125 C2.42363281 13.64042969 2.24960937 12.88632812 2.0703125 12.109375 C1.91320801 11.41811523 1.75610352 10.72685547 1.59423828 10.01464844 C1.0480908 7.93064466 1.0480908 7.93064466 -0.09033203 5.88378906 C-1 4 -1 4 -0.625 1.75 C-0.41875 1.1725 -0.2125 0.595 0 0 Z " fill="#EDF4EF" transform="translate(415,459)"/>
<path d="M0 0 C2 2 2 2 2.13525391 4.98095703 C2.08288574 6.22731934 2.03051758 7.47368164 1.9765625 8.7578125 C1.95153656 9.42086395 1.92651062 10.08391541 1.90072632 10.76705933 C1.81848733 12.88689015 1.72191635 15.00579437 1.625 17.125 C1.56676418 18.56115994 1.50946081 19.99735802 1.453125 21.43359375 C1.31290458 24.95623602 1.159824 28.4781866 1 32 C0.67 32 0.34 32 0 32 C0 22.1 0 12.2 0 2 C-2.64 2 -5.28 2 -8 2 C-8 1.67 -8 1.34 -8 1 C-1.9453125 0.0234375 -1.9453125 0.0234375 0 0 Z " fill="#203C32" transform="translate(891,508)"/>
<path d="M0 0 C2.70912781 0.11464015 5.41679661 0.24137154 8.125 0.375 C8.88554687 0.4059375 9.64609375 0.436875 10.4296875 0.46875 C14.94632158 0.702369 18.74152347 1.32654117 23 3 C23 3.33 23 3.66 23 4 C15.86978521 4.23767383 8.94307217 3.75472339 2 2 C1.34 1.34 0.68 0.68 0 0 Z " fill="#157F37" transform="translate(251,609)"/>
<path d="M0 0 C-0.63808594 0.17015625 -1.27617188 0.3403125 -1.93359375 0.515625 C-3.17302734 0.87914062 -3.17302734 0.87914062 -4.4375 1.25 C-5.26121094 1.48203125 -6.08492187 1.7140625 -6.93359375 1.953125 C-7.95646484 2.47132813 -7.95646484 2.47132813 -9 3 C-9.66666667 4.95833333 -9.66666667 4.95833333 -10 7 C-12.5625 9.25 -12.5625 9.25 -15 11 C-15 7 -15 7 -13.609375 5.3671875 C-12.68898438 4.62855469 -12.68898438 4.62855469 -11.75 3.875 C-11.14671875 3.37742187 -10.5434375 2.87984375 -9.921875 2.3671875 C-6.32957677 -0.18830921 -4.34330349 -1.55117982 0 0 Z " fill="#0D1E17" transform="translate(789,498)"/>
<path d="M0 0 C0.66 0 1.32 0 2 0 C3.79083852 2.30166787 5.47259242 4.60238901 7.125 7 C7.82689453 8.00160156 7.82689453 8.00160156 8.54296875 9.0234375 C9.70126236 10.67814266 10.85139765 12.33855307 12 14 C11.01 14 10.02 14 9 14 C8.67 13.01 8.34 12.02 8 11 C7.01 10.67 6.02 10.34 5 10 C2.88514786 6.64111719 1.2516984 3.75509521 0 0 Z " fill="#EBEDEB" transform="translate(718,517)"/>
<path d="M0 0 C1.65 0 3.3 0 5 0 C4.67 0.66 4.34 1.32 4 2 C2.35 2 0.7 2 -1 2 C-0.67 1.34 -0.34 0.68 0 0 Z M-3 2 C-2.01 2.33 -1.02 2.66 0 3 C0.144375 3.78375 0.28875 4.5675 0.4375 5.375 C0.87798925 7.96421018 0.87798925 7.96421018 2 10 C-0.4375 9.25 -0.4375 9.25 -3 8 C-3.875 6 -3.875 6 -4 4 C-3.67 3.34 -3.34 2.68 -3 2 Z " fill="#DDE1DF" transform="translate(852,507)"/>
<path d="M0 0 C0.79921875 0.01804687 1.5984375 0.03609375 2.421875 0.0546875 C3.02515625 0.07789063 3.6284375 0.10109375 4.25 0.125 C4.25 1.115 4.25 2.105 4.25 3.125 C-3.5 3.25 -3.5 3.25 -5.75 2.125 C-6.08 2.785 -6.41 3.445 -6.75 4.125 C-7.41 3.465 -8.07 2.805 -8.75 2.125 C-5.68753253 0.34090198 -3.52920727 -0.10380021 0 0 Z " fill="#E9ECEA" transform="translate(585.75,509.875)"/>
<path d="M0 0 C3.18908776 1.59454388 3.87395083 4.52455599 5.24609375 7.69921875 C6.15392368 10.46974635 6.05214771 12.28195175 5 15 C3.25050228 12.37575342 2.34610019 10.44272784 1.375 7.5 C0.98441406 6.33984375 0.98441406 6.33984375 0.5859375 5.15625 C0 3 0 3 0 0 Z " fill="#EEF1F0" transform="translate(514,502)"/>
<path d="M0 0 C2 1 2 1 2.81640625 2.890625 C4.08503456 6.90241296 5.32818817 10.83476665 6 15 C5.34 15 4.68 15 4 15 C3.32779649 13.06441401 2.66241923 11.12645628 2 9.1875 C1.62875 8.10855469 1.2575 7.02960938 0.875 5.91796875 C0 3 0 3 0 0 Z " fill="#EDEFEE" transform="translate(505,476)"/>
<path d="M0 0 C0.99 0.99 1.98 1.98 3 3 C1.7191375 6.64553172 0.83328987 8.16671013 -2 11 C-1.34 7.37 -0.68 3.74 0 0 Z " fill="#DDEDE2" transform="translate(275,554)"/>
<path d="M0 0 C4.81033104 2.54664585 8.32442148 4.99027798 12 9 C8.943846 8.39281709 6.84238324 7.43597932 4.3125 5.625 C3.71050781 5.20476562 3.10851562 4.78453125 2.48828125 4.3515625 C1 3 1 3 0 0 Z " fill="#EBF3ED" transform="translate(366,397)"/>
<path d="M0 0 C0.66 0.33 1.32 0.66 2 1 C-2.30769231 6.78461538 -2.30769231 6.78461538 -5.8125 7.875 C-6.8953125 7.936875 -6.8953125 7.936875 -8 8 C-5.58443874 4.80800833 -3.31996462 2.25283313 0 0 Z " fill="#0E7C30" transform="translate(187,374)"/>
<path d="M0 0 C2.6486859 3.19668988 4.93992341 6.39486597 7 10 C6.01 10.495 6.01 10.495 5 11 C3.02 8.03 1.04 5.06 -1 2 C-0.67 1.34 -0.34 0.68 0 0 Z " fill="#EAF3ED" transform="translate(144,590)"/>
<path d="M0 0 C2.64 0.33 5.28 0.66 8 1 C4.79619983 3.13586678 3.98060033 3.23132175 0.3125 3.125 C-0.89986328 3.09792969 -0.89986328 3.09792969 -2.13671875 3.0703125 C-3.05904297 3.03550781 -3.05904297 3.03550781 -4 3 C-2.68 2.67 -1.36 2.34 0 2 C0 1.34 0 0.68 0 0 Z " fill="#107D32" transform="translate(313,670)"/>
<path d="M0 0 C2 4 2 4 1.8125 6.0625 C1 8 1 8 -2 11 C-1.34 7.37 -0.68 3.74 0 0 Z " fill="#E8F1EB" transform="translate(282,526)"/>
<path d="M0 0 C1.65 0.33 3.3 0.66 5 1 C5 2.65 5 4.3 5 6 C4.67 5.34 4.34 4.68 4 4 C3.34 4 2.68 4 2 4 C2 3.34 2 2.68 2 2 C1.34 2 0.68 2 0 2 C0 2.66 0 3.32 0 4 C-0.66 3.67 -1.32 3.34 -2 3 C-1.34 2.01 -0.68 1.02 0 0 Z " fill="#EDEFED" transform="translate(877,504)"/>
<path d="M0 0 C3.63 0.66 7.26 1.32 11 2 C11 2.33 11 2.66 11 3 C7.37 3 3.74 3 0 3 C0 2.01 0 1.02 0 0 Z " fill="#E8F0EA" transform="translate(238,607)"/>
<path d="M0 0 C0.66 0.33 1.32 0.66 2 1 C1.34 3.97 0.68 6.94 0 10 C-2 6 -2 6 -1.125 2.75 C-0.75375 1.8425 -0.3825 0.935 0 0 Z " fill="#ECEFEE" transform="translate(555,495)"/>
</svg>
